# xmcd CD database file
#
# Track frame offsets:
#	187
#	12712
#	24637
#	36037
#	47007
#	57142
#	69609
#	82027
#	93169
#	105627
#
# Disc length: 1523 seconds
#
# Revision: 3
# Processed by: cddbd v1.5.2PL0 Copyright (c) Steve Scherf et al.
# Submitted via: CDex 1.51
#
DISCID=7d05f10a
DTITLE=Marvin Gaye - That Stubborn Kinda Fellow
DYEAR=1900
DGENRE=Soul
TTITLE0=Stubborn Kind Of Fellow
TTITLE1=Pride and Joy
TTITLE2=Hitch Hike
TTITLE3=Get My Hands On Some Lovin'
TTITLE4=Wherever I Lay My Hat
TTITLE5=Soldier's Plea
TTITLE6=It Hurt Me Too
TTITLE7=Taking My Time
TTITLE8=Hello There Angel
TTITLE9=I'm Yours, You're Mine
EXTD=
EXTT0=
EXTT1=
EXTT2=
EXTT3=
EXTT4=
EXTT5=
EXTT6=
EXTT7=
EXTT8=
EXTT9=
PLAYORDER=
